# xmcd
#
# Track frame offsets: 
#        150
#        15980
#        38212
#        51970
#        68052
#        75512
#        89170
#        107462
#        120602
#        142550
#        166175
#        173912
#        211027
#        228650
#        251255
#        268487
#        283427
#        305017
#
# Disc length: 4591 seconds
#
# Revision: 4
# Processed by: cddbd v1.5.2PL0 Copyright (c) Steve Scherf et al.
# Submitted via: ExactAudioCopy v0.99pb5
#
DISCID=f511ed12
DTITLE=Nina Simone - Sugar In My Bowl: The Very Best Of (1967-1972)-Di
DTITLE=sc 2
DYEAR=1998
DGENRE=Jazz
TTITLE0=I Think It's Going To Rain Today
TTITLE1=I Get Along Without You Very Well (Except Sometimes)
TTITLE2=Nobody's Fault But Mine
TTITLE3=Another Spring
TTITLE4=Compassion
TTITLE5=Seems I'm Never Tired Of Lovin' You
TTITLE6=I Shall Be Released
TTITLE7=To Be Young, Gifted, And Black
TTITLE8=Just Like Tom Thumb's Blues
TTITLE9=Suzanne
TTITLE10=My Father - Dialog
TTITLE11=Jelly Roll
TTITLE12=Tell It Like It Is
TTITLE13=Mr. Bojangles
TTITLE14=Here Comes The Sun
TTITLE15=Ooh Child
TTITLE16=Poppies
TTITLE17=22nd Century
EXTD=
EXTT0=
EXTT1=
EXTT2=
EXTT3=
EXTT4=
EXTT5=
EXTT6=
EXTT7=
EXTT8=
EXTT9=
EXTT10=
EXTT11=
EXTT12=
EXTT13=
EXTT14=
EXTT15=
EXTT16=
EXTT17=
PLAYORDER=
